{"title":"King Kong (1976).avi","uid":6177454,"size":2351219352,"categoryP":"video","categoryS":"movies","magnet":"?xt=urn:btih:8ea3d794ed140acc5f708194f0ee29702fcb515e&amp;dn=King+Kong+%281976%29.avi&amp;tr=udp%3A%2F%2Ftracker.openbittorrent.com%3A80&amp;tr=udp%3A%2F%2Fopen.demonii.com%3A1337&amp;tr=udp%3A%2F%2Ftracker.coppersurfer.tk%3A6969&amp;tr=udp%3A%2F%2Fexodus.desync.com%3A6969","seeders":0,"leechers":1,"uploader":"Beebe85","files":-1,"time":1297818653,"description":"King Kong (1976) DVDrip\n\n &lt;a href=&quot;\nhttp://www.imdb.com/title/tt0074751/&quot; rel=&quot;nofollow&quot; target=&quot;_NEW&quot;&gt;\nhttp://www.imdb.com/title/tt0074751/&lt;/a&gt;\n\n\n\n\nGeneral\nComplete name                    : King Kong (1976).avi\nFormat                           : AVI\nFormat/Info                      : Audio Video Interleave\nFormat profile                   : OpenDML\nFile size                        : 2.19 GiB\nDuration                         : 14mn 30s\nOverall bit rate                 : 21.6 Mbps\nWriting application              : Lavf52.17.0\n\nVideo\nID                               : 0\nFormat                           : AVC\nFormat/Info                      : Advanced Video Codec\nFormat profile                   : &lt;a class=&quot;__cf_email__&quot; href=&quot;/cdn-cgi/l/email-protection&quot; data-cfemail=&quot;b7f5d6c4d2dbded9d2f7fb869984&quot;&gt;[email&amp;#160;protected]&lt;/a&gt;&lt;script cf-hash='f9e31' type=&quot;text/javascript&quot;&gt;\n/* &lt;![CDATA[ */!function(){try{var t=&quot;currentScript&quot;in document?document.currentScript:function(){for(var t=document.getElementsByTagName(&quot;script&quot;),e=t.length;e--;)if(t[e].getAttribute(&quot;cf-hash&quot;))return t[e]}();if(t&amp;&amp;t.previousSibling){var e,r,n,i,c=t.previousSibling,a=c.getAttribute(&quot;data-cfemail&quot;);if(a){for(e=&quot;&quot;,r=parseInt(a.substr(0,2),16),n=2;a.length-n;n+=2)i=parseInt(a.substr(n,2),16)^r,e+=String.fromCharCode(i);e=document.createTextNode(e),c.parentNode.replaceChild(e,c)}}}catch(u){}}();/* ]]&gt; */&lt;/script&gt;\nFormat settings, CABAC           : No\nFormat settings, ReFrames        : 1 frame\nCodec ID                         : H264\nDuration                         : 14mn 30s\nBit rate                         : 2 115 Kbps\nNominal bit rate                 : 2 000 Kbps\nWidth                            : 688 pixels\nHeight                           : 290 pixels\nDisplay aspect ratio             : 2.35:1\nFrame rate                       : 30.000 fps\nColor space                      : YUV\nChroma subsampling               : 4:2:0\nBit depth                        : 8 bits\nScan type                        : Progressive\nBits/(Pixel*Frame)               : 0.353\nStream size                      : 219 MiB (10%)\nWriting library                  : x264 core 60\n\n\nAudio\nID                               : 1\nFormat                           : MPEG Audio\nFormat version                   : Version 1\nFormat profile                   : Layer 3\nMode                             : Joint stereo\nMode extension                   : MS Stereo\nCodec ID                         : 55\nCodec ID/Hint                    : MP3\nDuration                         : 9mn 57s\nBit rate mode                    : Constant\nBit rate                         : 320 Kbps\nChannel(s)                       : 2 channels\nSampling rate                    : 48.0 KHz\nStream size                      : 22.8 MiB (1%)\nAlignment                        : Aligned on interleaves\nInterleave, duration  ","torrent":{"xt":"urn:btih:8ea3d794ed140acc5f708194f0ee29702fcb515e","amp;dn":"King+Kong+%281976%29.avi","amp;tr":["udp%3A%2F%2Ftracker.openbittorrent.com%3A80","udp%3A%2F%2Fopen.demonii.com%3A1337","udp%3A%2F%2Ftracker.coppersurfer.tk%3A6969","udp%3A%2F%2Fexodus.desync.com%3A6969"],"infoHash":"8ea3d794ed140acc5f708194f0ee29702fcb515e","infoHashBuffer":{"type":"Buffer","data":[142,163,215,148,237,20,10,204,95,112,129,148,240,238,41,112,47,203,81,94]},"announce":[],"urlList":[]}}